<?xml version="1.0" encoding="utf-8"?>
<!-- Generator: Adobe Illustrator 27.9.1, SVG Export Plug-In . SVG Version: 6.00 Build 0)  -->
<svg version="1.1" id="Layer_1" xmlns="http://www.w3.org/2000/svg" xmlns:xlink="http://www.w3.org/1999/xlink" x="0px" y="0px"
	 viewBox="0 0 202.2 132.1" style="enable-background:new 0 0 202.2 132.1;" xml:space="preserve">
<style type="text/css">
	.st0{fill:#C11F4D;}
	.st1{fill:#27499B;}
</style>
<path id="stroke" class="st0" d="M178.5,39.7c-2.9-0.8-4.6-2.2-5.9-4.9c-4.5-9.2-13.8-15.1-23.9-15.1c-0.8,0-1.5,0-2.3,0.1
	c-0.1,0-0.2,0-0.3,0c-1.3,0-1.9-0.7-2.7-1.9c-0.6-0.8-1.2-1.7-1.8-2.6c-1.6-2.4-3.3-4.9-5.5-6.8C129.7,3,121.9,0,113.7,0
	C101,0,89.3,7.3,83.3,19c-0.6,1.2-1.2,1.6-2.2,1.6c-0.1,0-0.2,0-0.3,0c-0.8-0.1-1.5-0.1-2.3-0.2c-1.7-0.2-3.4-0.3-5.1-0.3
	c-0.7,0-1.3,0-1.8,0.1C54.2,21.6,42,34.8,41.8,52.4c0,0.6-0.6,1.7-1.1,1.9C33.8,57.5,28,61,22.7,65c-2.3,1.8-4.9,2.7-7.5,2.7
	c-1.9,0-3.9-0.4-5.9-1.3c-0.7-0.3-1.5-0.6-2.2-1c-1.1-0.5-2.2-1-3.4-1.5c-0.7-0.3-1.4-0.3-2.1-0.3c-0.3,0-0.6,0-0.8,0L0,63.5
	l0.1,0.8c0,0.2,0,0.5,0,0.8c0,0.6,0,1.3,0.2,1.9c0.4,1.4,1,2.7,1.5,4c0.1,0.3,0.3,0.7,0.4,1c4.9,12.8,12.9,20.9,24.4,24.7
	c0.8,0.3,1.6,1.3,2.2,2.2c0.1,0.2,0.2,0.3,0.4,0.5c0.8,1.1,1.6,2.3,2.4,3.5c1.5,2.3,3.1,4.7,5.2,6.6c5.4,4.9,11.8,7.3,18.9,7.3
	c2.3,0,4.6-0.3,7.1-0.8c0.3-0.1,0.6-0.1,0.9-0.1c0.8,0,1.4,0.3,2.2,1.4c2.5,3.1,4.6,5.1,6.8,6.8c7.1,5.2,16.3,8.1,25.9,8.1
	c12.3,0,23.9-4.6,31.8-12.5c0.8-0.8,1.2-0.9,1.8-0.9c0.3,0,0.7,0.1,1.3,0.2c0.5,0.2,1.1,0.3,1.6,0.5c4,1.3,8.1,2.6,12.3,3
	c1.3,0.1,2.5,0.2,3.8,0.2c8,0,15.3-2.5,21.5-7.3c4.4-3.4,7.7-8.1,10.5-15c0.5-1.3,1.6-2.8,2.7-3.3c12.6-5.7,15.9-16,16.5-23.7
	C201.6,56.4,192.8,43.5,178.5,39.7z M185.9,90.7c-0.4,0.3-0.8,0.5-1.4,0.7c-0.1,0-0.1,0.1-0.2,0.1c0-0.3-0.1-0.6-0.1-0.9
	c-0.1-1.2-0.2-2.4-0.3-3.6c-0.4-5.6-3-10.7-7.3-14.5c-4.3-4-9.6-6.1-15-6.1c-2.6,0-5.1,0.5-7.5,1.4C147,70.6,142.8,76,142,83.5
	c-0.8,7.6,2,13.5,8.3,17.2c2.3,1.4,4.9,2.1,7.5,2.1c6.7,0,12.2-4.5,13.1-10.7c0.4-2.9-0.4-5.7-2.3-7.9c-1.8-2.1-4.4-3.3-7.2-3.3
	c-0.5,0-0.9,0-1.4,0.1c-1,0.1-1.9,0.5-2.5,1.1c-0.5,0.4-0.8,1-1.1,1.6c-0.1,0.2-0.2,0.4-0.3,0.6l-0.4,0.7l0.8,0.3
	c0.3,0.1,0.5,0.2,0.8,0.4c0.6,0.3,1.3,0.6,2,0.6c0.1,0,0.2,0,0.2,0c0.8-0.1,1.5-0.1,2.1-0.1c2.3,0,3.2,0.6,3.9,2.7
	c1,3-0.4,6.3-3.3,7.8c-1.3,0.7-2.7,1-4.2,1c-4.9,0-9.3-3.8-10.5-9c-0.9-4.1,0-8.3,2.7-11.6c2.8-3.5,7-5.5,11.4-5.5
	c0.7,0,1.5,0.1,2.2,0.2c4.8,0.7,8.9,3.2,11.6,7c2.9,4,4,9,3.2,14.3c-2.4,14.7-13.7,24.2-28.8,24.2c-2.6,0-5.2-0.3-7.8-0.9
	c-2.9-0.7-5.8-1.9-8.4-3.2l-0.1-0.1c-1.5-0.7-2.4-1.1-3.3-1.1c-1.2,0-2,0.9-3.3,2.4c-5.1,6.1-11.5,9.9-18.8,11.2
	c-3.8,0.7-7.3,1.1-10.6,1.1c-8.6,0-15.9-2.4-22.2-7.3c-6.1-4.8-8.4-11.2-6.8-18.7c1.7-7.9,6.1-12.8,12.9-14.5
	c1.4-0.3,2.7-0.5,3.9-0.5c3.2,0,6,1.1,8.4,3.2c2.2,2,3.4,4.9,3.1,7.7c-0.2,2.4-1.5,4.5-3.6,5.7c-1.2,0.7-2.4,1-3.5,1
	c-1.2,0-2.5-0.4-3.8-1.1c-2.1-1.2-2.8-3-2.5-5.7v-0.2c0.1-0.5,0.1-1,0-1.5c-0.3-0.9-0.6-1.9-1.4-2.1c-0.1,0-0.3-0.1-0.4-0.1
	c-0.7,0-1.6,0.6-2.1,1.1c-2.5,3.2-1.5,8.8,2.1,11.8c2.3,2,5.2,3,8.1,3c2.1,0,4.1-0.6,5.8-1.6c4.9-3.1,7.4-8.9,6.1-14.1
	c-1.8-7.3-8.6-12.5-16.5-12.5c-1.2,0-2.3,0.1-3.5,0.3c-10.5,2-18.2,11.2-18.5,21.9v0.4c-0.1,1.9-0.1,3.8,0,5.7
	c0.1,1.1-0.3,1.6-1.6,2c-1.8,0.6-3.8,0.8-5.8,0.8c-10.2,0-20.1-7.2-22.5-16.5c-1.3-4.8-0.1-9,3.6-12.6c1.1-1.1,2.8-1.7,4.7-1.7
	c2.6,0,4.9,1.2,5.9,3c0.6,1.2,0.3,3.2-0.2,4.6c-0.3,0.7-0.9,0.9-1.3,0.9c-0.7,0-1.4-0.4-2-1c-0.6-0.6-1.1-1.2-1.7-1.9
	c-0.3-0.3-0.6-0.7-0.9-1l-0.9-1l-0.3,1.3c-0.7,2.8-0.5,4.7,0.3,6.1c0.7,1.1,1.9,1.9,3.7,2.3C44.5,94,45,94,45.4,94
	c3.3,0,6.6-2.6,7.4-5.9c0.7-2.8,0-5.9-1.9-8.4c-1.9-2.5-4.7-4.1-7.6-4.2c-0.2,0-0.4,0-0.6,0c-7.3,0-13.3,5.1-14.5,12.5
	c-0.1,0.8-0.2,1.7-0.3,2.5c0,0.2,0,0.3-0.1,0.5c-6-0.4-16.4-9.2-19.8-18.2c0.3,0.1,0.6,0.1,0.9,0.2c1.5,0.3,3,0.7,4.5,0.8
	c0.4,0,0.9,0,1.3,0c6.1,0,10.9-3.2,15.6-6.7c3.2-2.3,6.7-4.3,10.1-6.2l1.1-0.6c0.8-0.4,1.3-0.7,1.7-0.7c0.3,0,0.7,0.1,1.2,1.8
	c1.7,5,4.7,9,8.9,12.1c4,2.9,8.9,4.5,14,4.5c7.4,0,13.8-3.4,17.6-9.3c3.2-4.9,3.9-11.1,1.8-16.4c-1.9-5-6-8.6-11.1-9.9
	c-1.3-0.3-2.7-0.5-4-0.5c-4.7,0-8.6,2.3-10.7,6.4c-2.3,4.4-0.8,10.2,3.3,12.7c0.8,0.5,1.7,0.6,2.6,0.7c0.4,0,0.7,0.1,1.1,0.2
	l0.5,0.1l0.9-1.6V60c-0.2-0.3-0.3-0.5-0.5-0.8c-0.4-0.7-0.8-1.4-1.4-1.9c-2.2-2.2-2.8-4-2-6.1c1.1-2.4,3.1-3.8,5.8-4
	c0.3,0,0.5,0,0.8,0c3.7,0,7.2,2,9.3,5.2c2.2,3.5,2.5,7.8,0.7,11.5c-2.6,5.6-8.2,9.1-14.6,9.1c-2.9,0-5.8-0.8-8.4-2.2
	c-6.3-3.5-10.4-9.4-11.4-16.3c-1-7.3,1.7-14.6,7.3-20.1c5.5-5.4,12-8.2,19.3-8.2c2.4,0,4.9,0.3,7.5,0.9c0.5,0.1,0.9,0.2,1.3,0.3
	c0.8,0.2,1.4,0.3,1.8,0.3c1.2,0,1.5-0.8,2.1-2.2c0.1-0.3,0.3-0.7,0.5-1.2c6.5-14.9,17.7-18,25.9-18c3.4,0,6.9,0.5,10.5,1.6
	c6.5,1.9,11.5,6.6,15.2,14.2c-0.5,0.3-1,0.7-1.5,1c-1.5,0.9-2.8,1.8-4.1,2.9c-6.1,5-8.9,11.7-8,19.5c1,8.4,5.4,14.6,12.8,17.8
	c2.4,1,4.9,1.6,7.4,1.6c7.7,0,14.4-4.8,16.6-11.9c1.2-3.8,0.7-8-1.3-11.4c-1.9-3.2-5-5.5-8.6-6.2c-0.8-0.2-1.5-0.2-2.2-0.2
	c-2,0-3.8,0.6-5.5,1.8c-0.5,0.4-1.5,1.6-1.1,2.4c0.3,0.7,1.1,1,1.8,1.3l0.2,0.1c0.1,0.1,0.3,0.1,0.5,0.1s0.5-0.1,0.7-0.1
	c0.1,0,0.2,0,0.2-0.1c0.9-0.2,1.8-0.3,2.6-0.3c3.3,0,5.7,1.4,7.3,4.4c1.8,3.2,0.9,7.9-2.1,11c-2.3,2.4-5.6,3.9-9.1,3.9
	c-2.1,0-4.2-0.5-6.1-1.5c-6.6-3.4-9.8-10-8.8-17.7c1.1-7.8,5.7-12.7,13.3-14.2c1.5-0.3,3-0.4,4.5-0.4c8.3,0,15.5,4.6,19.3,12.2
	c0.2,0.4,0.4,0.9,0.6,1.4c0.3,0.9,0.7,1.8,1.3,2.6c0.8,1,2.3,2.6,4,2.7c11.1,0.7,21.5,11.7,22.3,23.6
	C196.7,78.6,193.4,85.9,185.9,90.7z"/>
<path id="fill" class="st1" d="M185.9,90.7c-0.4,0.3-0.8,0.5-1.4,0.7c-0.1,0-0.1,0.1-0.2,0.1c0-0.3-0.1-0.6-0.1-0.9
	c-0.1-1.2-0.2-2.4-0.3-3.6c-0.4-5.6-3-10.7-7.3-14.5c-4.3-4-9.6-6.1-15-6.1c-2.6,0-5.1,0.5-7.5,1.4C147,70.6,142.8,76,142,83.5
	c-0.8,7.6,2,13.5,8.3,17.2c2.3,1.4,4.9,2.1,7.5,2.1c6.7,0,12.2-4.5,13.1-10.7c0.4-2.9-0.4-5.7-2.3-7.9c-1.8-2.1-4.4-3.3-7.2-3.3
	c-0.5,0-0.9,0-1.4,0.1c-1,0.1-1.9,0.5-2.5,1.1c-0.5,0.4-0.8,1-1.1,1.6c-0.1,0.2-0.2,0.4-0.3,0.6l-0.4,0.7l0.8,0.3
	c0.3,0.1,0.5,0.2,0.8,0.4c0.6,0.3,1.3,0.6,2,0.6c0.1,0,0.2,0,0.2,0c0.8-0.1,1.5-0.1,2.1-0.1c2.3,0,3.2,0.6,3.9,2.7
	c1,3-0.4,6.3-3.3,7.8c-1.3,0.7-2.7,1-4.2,1c-4.9,0-9.3-3.8-10.5-9c-0.9-4.1,0-8.3,2.7-11.6c2.8-3.5,7-5.5,11.4-5.5
	c0.7,0,1.5,0.1,2.2,0.2c4.8,0.7,8.9,3.2,11.6,7c2.9,4,4,9,3.2,14.3c-2.4,14.7-13.7,24.2-28.8,24.2c-2.6,0-5.2-0.3-7.8-0.9
	c-2.9-0.7-5.8-1.9-8.4-3.2l-0.1-0.1c-1.5-0.7-2.4-1.1-3.3-1.1c-1.2,0-2,0.9-3.3,2.4c-5.1,6.1-11.5,9.9-18.8,11.2
	c-3.8,0.7-7.3,1.1-10.6,1.1c-8.6,0-15.9-2.4-22.2-7.3c-6.1-4.8-8.4-11.2-6.8-18.7c1.7-7.9,6.1-12.8,12.9-14.5
	c1.4-0.3,2.7-0.5,3.9-0.5c3.2,0,6,1.1,8.4,3.2c2.2,2,3.4,4.9,3.1,7.7c-0.2,2.4-1.5,4.5-3.6,5.7c-1.2,0.7-2.4,1-3.5,1
	c-1.2,0-2.5-0.4-3.8-1.1c-2.1-1.2-2.8-3-2.5-5.7v-0.2c0.1-0.5,0.1-1,0-1.5c-0.3-0.9-0.6-1.9-1.4-2.1c-0.1,0-0.3-0.1-0.4-0.1
	c-0.7,0-1.6,0.6-2.1,1.1c-2.5,3.2-1.5,8.8,2.1,11.8c2.3,2,5.2,3,8.1,3c2.1,0,4.1-0.6,5.8-1.6c4.9-3.1,7.4-8.9,6.1-14.1
	c-1.8-7.3-8.6-12.5-16.5-12.5c-1.2,0-2.3,0.1-3.5,0.3c-10.5,2-18.2,11.2-18.5,21.9v0.4c-0.1,1.9-0.1,3.8,0,5.7
	c0.1,1.1-0.3,1.6-1.6,2c-1.8,0.6-3.8,0.8-5.8,0.8c-10.2,0-20.1-7.2-22.5-16.5c-1.3-4.8-0.1-9,3.6-12.6c1.1-1.1,2.8-1.7,4.7-1.7
	c2.6,0,4.9,1.2,5.9,3c0.6,1.2,0.3,3.2-0.2,4.6c-0.3,0.7-0.9,0.9-1.3,0.9c-0.7,0-1.4-0.4-2-1c-0.6-0.6-1.1-1.2-1.7-1.9
	c-0.3-0.3-0.6-0.7-0.9-1l-0.9-1l-0.3,1.3c-0.7,2.8-0.5,4.7,0.3,6.1c0.7,1.1,1.9,1.9,3.7,2.3C44.5,94,45,94,45.4,94
	c3.3,0,6.6-2.6,7.4-5.9c0.7-2.8,0-5.9-1.9-8.4c-1.9-2.5-4.7-4.1-7.6-4.2c-0.2,0-0.4,0-0.6,0c-7.3,0-13.3,5.1-14.5,12.5
	c-0.1,0.8-0.2,1.7-0.3,2.5c0,0.2,0,0.3-0.1,0.5c-6-0.4-16.4-9.2-19.8-18.2c0.3,0.1,0.6,0.1,0.9,0.2c1.5,0.3,3,0.7,4.5,0.8
	c0.4,0,0.9,0,1.3,0c6.1,0,10.9-3.2,15.6-6.7c3.2-2.3,6.7-4.3,10.1-6.2l1.1-0.6c0.8-0.4,1.3-0.7,1.7-0.7c0.3,0,0.7,0.1,1.2,1.8
	c1.7,5,4.7,9,8.9,12.1c4,2.9,8.9,4.5,14,4.5c7.4,0,13.8-3.4,17.6-9.3c3.2-4.9,3.9-11.1,1.8-16.4c-1.9-5-6-8.6-11.1-9.9
	c-1.3-0.3-2.7-0.5-4-0.5c-4.7,0-8.6,2.3-10.7,6.4c-2.3,4.4-0.8,10.2,3.3,12.7c0.8,0.5,1.7,0.6,2.6,0.7c0.4,0,0.7,0.1,1.1,0.2
	l0.5,0.1l0.9-1.6V60c-0.2-0.3-0.3-0.5-0.5-0.8c-0.4-0.7-0.8-1.4-1.4-1.9c-2.2-2.2-2.8-4-2-6.1c1.1-2.4,3.1-3.8,5.8-4
	c0.3,0,0.5,0,0.8,0c3.7,0,7.2,2,9.3,5.2c2.2,3.5,2.5,7.8,0.7,11.5c-2.6,5.6-8.2,9.1-14.6,9.1c-2.9,0-5.8-0.8-8.4-2.2
	c-6.3-3.5-10.4-9.4-11.4-16.3c-1-7.3,1.7-14.6,7.3-20.1c5.5-5.4,12-8.2,19.3-8.2c2.4,0,4.9,0.3,7.5,0.9c0.5,0.1,0.9,0.2,1.3,0.3
	c0.8,0.2,1.4,0.3,1.8,0.3c1.2,0,1.5-0.8,2.1-2.2c0.1-0.3,0.3-0.7,0.5-1.2c6.5-14.9,17.7-18,25.9-18c3.4,0,6.9,0.5,10.5,1.6
	c6.5,1.9,11.5,6.6,15.2,14.2c-0.5,0.3-1,0.7-1.5,1c-1.5,0.9-2.8,1.8-4.1,2.9c-6.1,5-8.9,11.7-8,19.5c1,8.4,5.4,14.6,12.8,17.8
	c2.4,1,4.9,1.6,7.4,1.6c7.7,0,14.4-4.8,16.6-11.9c1.2-3.8,0.7-8-1.3-11.4c-1.9-3.2-5-5.5-8.6-6.2c-0.8-0.2-1.5-0.2-2.2-0.2
	c-2,0-3.8,0.6-5.5,1.8c-0.5,0.4-1.5,1.6-1.1,2.4c0.3,0.7,1.1,1,1.8,1.3l0.2,0.1c0.1,0.1,0.3,0.1,0.5,0.1s0.5-0.1,0.7-0.1
	c0.1,0,0.2,0,0.2-0.1c0.9-0.2,1.8-0.3,2.6-0.3c3.3,0,5.7,1.4,7.3,4.4c1.8,3.2,0.9,7.9-2.1,11c-2.3,2.4-5.6,3.9-9.1,3.9
	c-2.1,0-4.2-0.5-6.1-1.5c-6.6-3.4-9.8-10-8.8-17.7c1.1-7.8,5.7-12.7,13.3-14.2c1.5-0.3,3-0.4,4.5-0.4c8.3,0,15.5,4.6,19.3,12.2
	c0.2,0.4,0.4,0.9,0.6,1.4c0.3,0.9,0.7,1.8,1.3,2.6c0.8,1,2.3,2.6,4,2.7c11.1,0.7,21.5,11.7,22.3,23.6
	C196.7,78.6,193.4,85.9,185.9,90.7z"/>
</svg>
